#!OML:ASF F:\VICON\USERDATA\INSTALL\rory3\rory3.ASF
:FULLY-SPECIFIED
:DEGREES
1797
root 0.0252252 15.4135 -4.4174 -14.9676 -1.65928 -717.472
lowerback 21.822 0.335855 -3.70803
upperback 10.3862 -0.273928 0.505546
thorax -0.837566 -0.288972 2.70613
lowerneck -22.5276 -4.87552 -11.8812
upperneck 16.195 -4.17926 6.3924
head 9.17981 -1.9978 3.54289
rclavicle 5.06901e-015 1.78906e-015
rhumerus -31.7253 23.4021 -90.6347
rradius 101.121
rwrist 29.414
rhand -42.5013 15.894
rfingers 7.12502
rthumb -15.3781 -13.5141
lclavicle 5.06901e-015 1.78906e-015
lhumerus -31.9024 -22.9122 92.9858
lradius 94.0309
lwrist -26.5733
lhand -40.6676 14.5932
lfingers 7.12502
lthumb -13.6113 44.1283
rfemur -90.9724 -9.29253 33.0519
rtibia 136.808
rfoot 2.74942 -7.52521
rtoes 0.905217
lfemur -90.9796 10.7076 -35.9969
ltibia 134.91
lfoot 4.89058 -1.57271
ltoes -2.93835
1798
root 0.0270617 15.4092 -4.41065 -14.9094 -1.73732 -717.473
lowerback 21.7779 0.344991 -3.71579
upperback 10.3902 -0.262482 0.500179
thorax -0.81215 -0.284176 2.70189
lowerneck -22.6665 -4.78689 -11.7208
upperneck 16.2213 -4.07268 6.29861
head 9.19631 -1.94656 3.49936
rclavicle -6.75868e-015 -1.31198e-014
rhumerus -31.6578 23.4465 -90.6175
rradius 101.071
rwrist 29.385
rhand -42.655 15.6728
rfingers 7.12502
rthumb -15.5261 -13.7239
lclavicle -6.75868e-015 -1.31198e-014
lhumerus -31.8918 -22.9271 92.9607
lradius 94.0703
lwrist -26.451
lhand -40.6769 14.7475
lfingers 7.12502
lthumb -13.6203 44.2819
rfemur -91.0825 -9.23889 33.0697
rtibia 136.828
rfoot 2.82371 -7.59466
rtoes 1.0269
lfemur -91.104 10.7188 -35.9973
ltibia 134.955
lfoot 4.86612 -1.5961
ltoes -3.11176
1799
root 0.030268 15.4041 -4.40394 -14.8436 -1.77629 -717.454
lowerback 21.7479 0.337207 -3.72939
upperback 10.3477 -0.27516 0.492436
thorax -0.842706 -0.289594 2.70407
lowerneck -22.7092 -4.66227 -11.6232
upperneck 16.2616 -3.92486 6.27669
head 9.20045 -1.8739 3.49851
rclavicle 1.12313e-014 2.78299e-015
rhumerus -31.7055 23.4962 -90.6253
rradius 101.033
rwrist 29.3336
rhand -42.6811 15.6393
rfingers 7.12502
rthumb -15.5512 -13.7555
lclavicle 1.12313e-014 2.78299e-015
lhumerus -32.0059 -22.9234 93.0069
lradius 94.1214
lwrist -26.4405
lhand -40.7017 14.8957
lfingers 7.12502
lthumb -13.6441 44.4285
rfemur -91.2021 -9.22403 33.0332
rtibia 136.875
rfoot 2.83052 -7.63972
rtoes 1.37624
lfemur -91.2156 10.636 -36.0376
ltibia 134.998
lfoot 4.82343 -1.56794
ltoes -3.10948
1800
root 0.0313192 15.3988 -4.40048 -14.7572 -1.70395 -717.341
lowerback 21.6852 0.328944 -3.8514
upperback 10.35 -0.306804 0.467701
thorax -0.804783 -0.309619 2.75324
lowerneck -22.8407 -4.57233 -11.5659
upperneck 16.3021 -3.80707 6.28638
head 9.22454 -1.81287 3.5104
rclavicle 5.56597e-015 1.59028e-015
rhumerus -31.6595 23.499 -90.5863
rradius 100.987
rwrist 29.3257
rhand -42.8054 15.6622
rfingers 7.12502
rthumb -15.6709 -13.7232
lclavicle 5.56597e-015 1.59028e-015
lhumerus -31.9802 -22.9778 92.9974
lradius 94.1525
lwrist -26.4713
lhand -40.6661 14.9752
lfingers 7.12502
lthumb -13.6099 44.5104
rfemur -91.3869 -9.33174 32.9313
rtibia 136.964
rfoot 2.96419 -7.70742
rtoes 1.60777
lfemur -91.2822 10.3792 -36.1773
ltibia 135.011
lfoot 4.80375 -1.4775
ltoes -3.21828
1801
root 0.0322898 15.3991 -4.39866 -14.6693 -1.63419 -717.3
lowerback 21.5686 0.304818 -3.90112
upperback 10.3976 -0.341857 0.45406
thorax -0.691623 -0.331489 2.77299
lowerneck -22.9685 -4.48521 -11.3845
upperneck 16.274 -3.70604 6.17304
head 9.2205 -1.76444 3.45513
rclavicle -1.19271e-015 -1.13307e-014
rhumerus -31.5008 23.5063 -90.529
rradius 100.928
rwrist 29.3401
rhand -42.9659 15.6325
rfingers 7.12502
rthumb -15.8255 -13.7407
lclavicle -1.19271e-015 -1.13307e-014
lhumerus -31.8698 -23.0851 92.9437
lradius 94.1432
lwrist -26.5075
lhand -40.6565 15.0111
lfingers 7.12502
lthumb -13.6006 44.5469
rfemur -91.4812 -9.47809 32.8875
rtibia 137.006
rfoot 3.0773 -7.79279
rtoes 2.16576
lfemur -91.3051 10.1838 -36.2358
ltibia 134.984
lfoot 4.69431 -1.34272
ltoes -3.94949
1802
root 0.0352537 15.3982 -4.39534 -14.6019 -1.66469 -717.279
lowerback 21.4964 0.305238 -3.91474
upperback 10.4088 -0.340932 0.451372
thorax -0.643406 -0.332699 2.77686
lowerneck -23.0273 -4.38378 -11.2865
upperneck 16.2537 -3.58307 6.13368
head 9.20885 -1.70406 3.44338
rclavicle 1.3418e-014 -1.98785e-015
rhumerus -31.4369 23.5418 -90.4918
rradius 100.898
rwrist 29.3402
rhand -43.0396 15.5482
rfingers 7.12502
rthumb -15.8965 -13.8194
lclavicle 1.3418e-014 -1.98785e-015
lhumerus -31.8956 -23.155 92.9676
lradius 94.1749
lwrist -26.5039
lhand -40.7688 15.0497
lfingers 7.12502
lthumb -13.7088 44.5781
rfemur -91.5716 -9.53467 32.8965
rtibia 137.028
rfoot 3.17366 -7.85263
rtoes 2.47433
lfemur -91.3827 10.1442 -36.2924
ltibia 134.997
lfoot 4.74443 -1.46479
ltoes -3.62854
1803
root 0.0391986 15.3965 -4.39178 -14.5399 -1.73016 -717.317
lowerback 21.4169 0.288445 -3.83128
upperback 10.4314 -0.344077 0.44659
thorax -0.580726 -0.332941 2.72401
lowerneck -23.1814 -4.29114 -11.2712
upperneck 16.3419 -3.45818 6.19489
head 9.25497 -1.63712 3.48218
rclavicle -3.27995e-015 9.93923e-016
rhumerus -31.3685 23.5622 -90.4624
rradius 100.872
rwrist 29.3926
rhand -43.1076 15.6061
rfingers 7.12502
rthumb -15.9619 -13.7562
lclavicle -3.27995e-015 9.93923e-016
lhumerus -31.9392 -23.1473 92.9683
lradius 94.2329
lwrist -26.4762
lhand -40.8502 15.0473
lfingers 7.12502
lthumb -13.7872 44.5704
rfemur -91.6356 -9.52988 32.9598
rtibia 137.031
rfoot 3.22684 -7.8743
rtoes 2.57669
lfemur -91.4873 10.141 -36.2733
ltibia 135.031
lfoot 4.34419 -1.50112
ltoes -4.90959
1804
root 0.0422015 15.3962 -4.38993 -14.4796 -1.8035 -717.355
lowerback 21.3639 0.287998 -3.74376
upperback 10.4643 -0.326525 0.434063
thorax -0.521606 -0.322467 2.65643
lowerneck -23.4111 -4.23227 -11.2479
upperneck 16.4575 -3.37902 6.2788
head 9.32825 -1.58766 3.52133
rclavicle -6.55989e-015 -1.19271e-015
rhumerus -31.2953 23.5482 -90.4303
rradius 100.84
rwrist 29.4612
rhand -43.2435 15.7933
rfingers 7.12502
rthumb -16.0928 -13.5585
lclavicle -6.55989e-015 -1.19271e-015
lhumerus -31.899 -23.1993 92.8943
lradius 94.2376
lwrist -26.4021
lhand -40.9205 14.8314
lfingers 7.12502
lthumb -13.855 44.3499
rfemur -91.7032 -9.46737 33.0163
rtibia 137.022
rfoot 3.2577 -7.93565
rtoes 2.48418
lfemur -91.5783 10.1502 -36.2525
ltibia 135.047
lfoot 4.93565 -1.24848
ltoes -2.6274
1805
root 0.0450735 15.3948 -4.38762 -14.4246 -1.90358 -717.4
lowerback 21.3335 0.302333 -3.67579
upperback 10.4614 -0.294568 0.440313
thorax -0.51311 -0.304478 2.61749
lowerneck -23.4715 -4.16641 -11.1735
upperneck 16.4961 -3.30439 6.26398
head 9.34321 -1.54951 3.51578
rclavicle 1.2424e-014 2.98177e-015
rhumerus -31.2796 23.5493 -90.4126
rradius 100.797
rwrist 29.5105
rhand -43.3977 15.9769
rfingers 7.12502
rthumb -16.2414 -13.3629
lclavicle 1.2424e-014 2.98177e-015
lhumerus -31.9123 -23.2514 92.8582
lradius 94.2528
lwrist -26.2445
lhand -41.0595 14.7611
lfingers 7.12502
lthumb -13.989 44.2705
rfemur -91.7643 -9.34336 33.0899
rtibia 137.016
rfoot 3.28576 -8.0181
rtoes 2.32659
lfemur -91.6796 10.2079 -36.233
ltibia 135.086
lfoot 4.41192 -1.29541
ltoes -4.74058
